<svg width="97" height="96" viewBox="0 0 97 96" fill="none" xmlns="http://www.w3.org/2000/svg">
<path d="M68.8333 72C70.955 72 72.9899 72.8429 74.4902 74.3431C75.9905 75.8434 76.8333 77.8783 76.8333 80C76.8333 82.1217 75.9905 84.1566 74.4902 85.6569C72.9899 87.1571 70.955 88 68.8333 88C64.3933 88 60.8333 84.4 60.8333 80C60.8333 75.56 64.3933 72 68.8333 72ZM4.83331 8H17.9133L21.6733 16H80.8333C81.8942 16 82.9116 16.4214 83.6617 17.1716C84.4119 17.9217 84.8333 18.9391 84.8333 20C84.8333 20.68 84.6333 21.36 84.3533 22L70.0333 47.88C68.6733 50.32 66.0333 52 63.0333 52H33.2333L29.6333 58.52L29.5133 59C29.5133 59.2652 29.6187 59.5196 29.8062 59.7071C29.9937 59.8946 30.2481 60 30.5133 60H76.8333V68H28.8333C24.3933 68 20.8333 64.4 20.8333 60C20.8333 58.6 21.1933 57.28 21.7933 56.16L27.2333 46.36L12.8333 16H4.83331V8ZM28.8333 72C30.955 72 32.9899 72.8429 34.4902 74.3431C35.9905 75.8434 36.8333 77.8783 36.8333 80C36.8333 82.1217 35.9905 84.1566 34.4902 85.6569C32.9899 87.1571 30.955 88 28.8333 88C24.3933 88 20.8333 84.4 20.8333 80C20.8333 75.56 24.3933 72 28.8333 72ZM64.8333 44L75.9533 24H25.3933L34.8333 44H64.8333Z" fill="#E1861B"/>
</svg>
