<svg width="73" height="64" viewBox="0 0 73 64" fill="none" xmlns="http://www.w3.org/2000/svg">
<path d="M8.49998 24L14.5 6H58.5L64.5 24M58.5 44C56.9087 44 55.3826 43.3679 54.2573 42.2426C53.1321 41.1174 52.5 39.5913 52.5 38C52.5 36.4087 53.1321 34.8826 54.2573 33.7574C55.3826 32.6321 56.9087 32 58.5 32C60.0913 32 61.6174 32.6321 62.7426 33.7574C63.8678 34.8826 64.5 36.4087 64.5 38C64.5 39.5913 63.8678 41.1174 62.7426 42.2426C61.6174 43.3679 60.0913 44 58.5 44ZM14.5 44C12.9087 44 11.3826 43.3679 10.2573 42.2426C9.13212 41.1174 8.49998 39.5913 8.49998 38C8.49998 36.4087 9.13212 34.8826 10.2573 33.7574C11.3826 32.6321 12.9087 32 14.5 32C16.0913 32 17.6174 32.6321 18.7426 33.7574C19.8678 34.8826 20.5 36.4087 20.5 38C20.5 39.5913 19.8678 41.1174 18.7426 42.2426C17.6174 43.3679 16.0913 44 14.5 44ZM64.18 4C63.38 1.68 61.14 0 58.5 0H14.5C11.86 0 9.61998 1.68 8.81998 4L0.499985 28V60C0.499985 61.0609 0.921412 62.0783 1.67156 62.8284C2.4217 63.5786 3.43912 64 4.49998 64H8.49998C9.56085 64 10.5783 63.5786 11.3284 62.8284C12.0786 62.0783 12.5 61.0609 12.5 60V56H60.5V60C60.5 61.0609 60.9214 62.0783 61.6716 62.8284C62.4217 63.5786 63.4391 64 64.5 64H68.5C69.5609 64 70.5783 63.5786 71.3284 62.8284C72.0786 62.0783 72.5 61.0609 72.5 60V28L64.18 4Z" fill="white"/>
</svg>
