<svg width="40" height="40" viewBox="0 0 40 40" fill="none" xmlns="http://www.w3.org/2000/svg">
<path d="M20 33.3334C27.3333 33.3334 33.3333 27.3334 33.3333 20C33.3333 12.6667 27.3333 6.66671 20 6.66671C12.6666 6.66671 6.66665 12.6667 6.66665 20C6.66665 27.3334 12.6666 33.3334 20 33.3334ZM20 3.33337C29.1666 3.33337 36.6666 10.8334 36.6666 20C36.6666 29.1667 29.1666 36.6667 20 36.6667C10.8333 36.6667 3.33331 29.1667 3.33331 20C3.33331 10.8334 10.8333 3.33337 20 3.33337ZM20.8333 21.3334L12.8333 26L11.6666 23.6667L18.3333 19.8334V11.6667H20.8333V21.3334Z" fill="#E1861B"/>
</svg>
