<svg width="40" height="40" viewBox="0 0 40 40" fill="none" xmlns="http://www.w3.org/2000/svg">
<path d="M25 6.66663C28.5362 6.66663 31.9276 8.07138 34.4281 10.5719C36.9286 13.0724 38.3334 16.4637 38.3334 20C38.3334 23.5362 36.9286 26.9276 34.4281 29.428C31.9276 31.9285 28.5362 33.3333 25 33.3333C21.4638 33.3333 18.0724 31.9285 15.5719 29.428C13.0714 26.9276 11.6667 23.5362 11.6667 20C11.6667 16.4637 13.0714 13.0724 15.5719 10.5719C18.0724 8.07138 21.4638 6.66663 25 6.66663ZM25 9.99996C22.3479 9.99996 19.8043 11.0535 17.929 12.9289C16.0536 14.8043 15 17.3478 15 20C15 22.6521 16.0536 25.1957 17.929 27.071C19.8043 28.9464 22.3479 30 25 30C27.6522 30 30.1957 28.9464 32.0711 27.071C33.9465 25.1957 35 22.6521 35 20C35 17.3478 33.9465 14.8043 32.0711 12.9289C30.1957 11.0535 27.6522 9.99996 25 9.99996ZM23.3334 13.3333H25.8334V19.6333L29.7167 23.5166L27.95 25.2833L23.3334 20.6666V13.3333ZM3.33335 30C2.89133 30 2.4674 29.8244 2.15484 29.5118C1.84228 29.1992 1.66669 28.7753 1.66669 28.3333C1.66669 27.8913 1.84228 27.4673 2.15484 27.1548C2.4674 26.8422 2.89133 26.6666 3.33335 26.6666H9.71669C10.2334 27.85 10.9 28.9666 11.6667 30H3.33335ZM5.00002 21.6666C4.55799 21.6666 4.13407 21.491 3.82151 21.1785C3.50895 20.8659 3.33335 20.442 3.33335 20C3.33335 19.5579 3.50895 19.134 3.82151 18.8214C4.13407 18.5089 4.55799 18.3333 5.00002 18.3333H8.41669L8.33335 20L8.41669 21.6666H5.00002ZM6.66669 13.3333C6.22466 13.3333 5.80074 13.1577 5.48818 12.8451C5.17562 12.5326 5.00002 12.1087 5.00002 11.6666C5.00002 11.2246 5.17562 10.8007 5.48818 10.4881C5.80074 10.1756 6.22466 9.99996 6.66669 9.99996H11.6667C10.9 11.0333 10.2334 12.15 9.71669 13.3333H6.66669Z" fill="#E1861B"/>
</svg>
