<svg width="280" height="187" viewBox="0 0 280 187" fill="none" xmlns="http://www.w3.org/2000/svg">
<rect width="280" height="187" fill="#FFA500"/>
<path d="M50.2367 69V57.72H52.2847V69H50.2367ZM55.0567 69V61.176H57.0087V62.376C57.2434 61.9493 57.5687 61.6187 57.9847 61.384C58.4007 61.1387 58.8807 61.016 59.4247 61.016C60.598 61.016 61.366 61.528 61.7287 62.552C61.974 62.072 62.326 61.6987 62.7847 61.432C63.2434 61.1547 63.766 61.016 64.3527 61.016C66.1127 61.016 66.9927 62.088 66.9927 64.232V69H64.9927V64.312C64.9927 63.7147 64.8914 63.2773 64.6887 63C64.4967 62.7227 64.166 62.584 63.6967 62.584C63.174 62.584 62.7634 62.7707 62.4647 63.144C62.166 63.5067 62.0167 64.0133 62.0167 64.664V69H60.0167V64.312C60.0167 63.7147 59.9154 63.2773 59.7127 63C59.5207 62.7227 59.1954 62.584 58.7367 62.584C58.214 62.584 57.8034 62.7707 57.5047 63.144C57.206 63.5067 57.0567 64.0133 57.0567 64.664V69H55.0567ZM72.1119 69.16C71.5466 69.16 71.0399 69.0533 70.5919 68.84C70.1546 68.616 69.8079 68.3173 69.5519 67.944C69.3066 67.5707 69.1839 67.1493 69.1839 66.68C69.1839 66.104 69.3333 65.6507 69.6319 65.32C69.9306 64.9787 70.4159 64.7333 71.0879 64.584C71.7599 64.4347 72.6613 64.36 73.7919 64.36H74.3519V64.024C74.3519 63.4907 74.2346 63.1067 73.9999 62.872C73.7653 62.6373 73.3706 62.52 72.8159 62.52C72.3786 62.52 71.9306 62.5893 71.4719 62.728C71.0133 62.856 70.5493 63.0587 70.0799 63.336L69.5039 61.976C69.7813 61.784 70.1066 61.6187 70.4799 61.48C70.8639 61.3307 71.2639 61.2187 71.6799 61.144C72.1066 61.0587 72.5066 61.016 72.8799 61.016C74.0213 61.016 74.8693 61.2827 75.4239 61.816C75.9786 62.3387 76.2559 63.1547 76.2559 64.264V69H74.3839V67.752C74.2026 68.1893 73.9146 68.536 73.5199 68.792C73.1253 69.0373 72.6559 69.16 72.1119 69.16ZM72.5279 67.784C73.0506 67.784 73.4826 67.6027 73.8239 67.24C74.1759 66.8773 74.3519 66.4187 74.3519 65.864V65.512H73.8079C72.8053 65.512 72.1066 65.592 71.7119 65.752C71.3279 65.9013 71.1359 66.1787 71.1359 66.584C71.1359 66.936 71.2586 67.224 71.5039 67.448C71.7493 67.672 72.0906 67.784 72.5279 67.784ZM82.4139 72.04C81.6886 72.04 81.0059 71.9547 80.3659 71.784C79.7366 71.624 79.1819 71.3733 78.7019 71.032L79.2779 69.64C79.7259 69.9387 80.2059 70.1573 80.7179 70.296C81.2299 70.4453 81.7419 70.52 82.2539 70.52C83.6833 70.52 84.3979 69.832 84.3979 68.456V67.384C84.1739 67.8213 83.8273 68.168 83.3579 68.424C82.8993 68.68 82.3873 68.808 81.8219 68.808C81.1179 68.808 80.5046 68.648 79.9819 68.328C79.4593 67.9973 79.0539 67.5387 78.7659 66.952C78.4779 66.3653 78.3339 65.6827 78.3339 64.904C78.3339 64.1253 78.4779 63.448 78.7659 62.872C79.0539 62.2853 79.4593 61.832 79.9819 61.512C80.5046 61.1813 81.1179 61.016 81.8219 61.016C82.4086 61.016 82.9313 61.1493 83.3899 61.416C83.8486 61.672 84.1846 62.0187 84.3979 62.456V61.176H86.3499V68.216C86.3499 69.4853 86.0139 70.44 85.3419 71.08C84.6699 71.72 83.6939 72.04 82.4139 72.04ZM82.3659 67.288C82.9846 67.288 83.4753 67.0747 83.8379 66.648C84.2006 66.2213 84.3819 65.64 84.3819 64.904C84.3819 64.168 84.2006 63.592 83.8379 63.176C83.4753 62.7493 82.9846 62.536 82.3659 62.536C81.7473 62.536 81.2566 62.7493 80.8939 63.176C80.5313 63.592 80.3499 64.168 80.3499 64.904C80.3499 65.64 80.5313 66.2213 80.8939 66.648C81.2566 67.0747 81.7473 67.288 82.3659 67.288ZM92.7582 69.16C91.8728 69.16 91.1102 68.9947 90.4702 68.664C89.8302 68.3333 89.3342 67.864 88.9822 67.256C88.6408 66.648 88.4702 65.928 88.4702 65.096C88.4702 64.2853 88.6355 63.576 88.9662 62.968C89.3075 62.36 89.7715 61.8853 90.3582 61.544C90.9555 61.192 91.6328 61.016 92.3902 61.016C93.4995 61.016 94.3742 61.368 95.0142 62.072C95.6648 62.776 95.9902 63.736 95.9902 64.952V65.544H90.3902C90.5395 66.9413 91.3395 67.64 92.7902 67.64C93.2275 67.64 93.6648 67.576 94.1022 67.448C94.5395 67.3093 94.9395 67.096 95.3022 66.808L95.8622 68.152C95.4888 68.4613 95.0195 68.7067 94.4542 68.888C93.8888 69.0693 93.3235 69.16 92.7582 69.16ZM92.4702 62.376C91.8835 62.376 91.4088 62.5573 91.0462 62.92C90.6835 63.2827 90.4648 63.7733 90.3902 64.392H94.3262C94.2835 63.7413 94.1022 63.2453 93.7822 62.904C93.4728 62.552 93.0355 62.376 92.4702 62.376ZM98.0861 69V61.176H100.038V62.376C100.273 61.9493 100.598 61.6187 101.014 61.384C101.43 61.1387 101.91 61.016 102.454 61.016C103.627 61.016 104.395 61.528 104.758 62.552C105.003 62.072 105.355 61.6987 105.814 61.432C106.273 61.1547 106.795 61.016 107.382 61.016C109.142 61.016 110.022 62.088 110.022 64.232V69H108.022V64.312C108.022 63.7147 107.921 63.2773 107.718 63C107.526 62.7227 107.195 62.584 106.726 62.584C106.203 62.584 105.793 62.7707 105.494 63.144C105.195 63.5067 105.046 64.0133 105.046 64.664V69H103.046V64.312C103.046 63.7147 102.945 63.2773 102.742 63C102.55 62.7227 102.225 62.584 101.766 62.584C101.243 62.584 100.833 62.7707 100.534 63.144C100.235 63.5067 100.086 64.0133 100.086 64.664V69H98.0861ZM117.358 69V61.176H119.31V62.392C119.576 61.944 119.934 61.6027 120.382 61.368C120.84 61.1333 121.352 61.016 121.918 61.016C123.763 61.016 124.686 62.088 124.686 64.232V69H122.686V64.328C122.686 63.72 122.568 63.2773 122.334 63C122.11 62.7227 121.758 62.584 121.278 62.584C120.691 62.584 120.222 62.7707 119.87 63.144C119.528 63.5067 119.358 63.992 119.358 64.6V69H117.358ZM129.773 69.16C129.208 69.16 128.701 69.0533 128.253 68.84C127.816 68.616 127.469 68.3173 127.213 67.944C126.968 67.5707 126.845 67.1493 126.845 66.68C126.845 66.104 126.995 65.6507 127.293 65.32C127.592 64.9787 128.077 64.7333 128.749 64.584C129.421 64.4347 130.323 64.36 131.453 64.36H132.013V64.024C132.013 63.4907 131.896 63.1067 131.661 62.872C131.427 62.6373 131.032 62.52 130.477 62.52C130.04 62.52 129.592 62.5893 129.133 62.728C128.675 62.856 128.211 63.0587 127.741 63.336L127.165 61.976C127.443 61.784 127.768 61.6187 128.141 61.48C128.525 61.3307 128.925 61.2187 129.341 61.144C129.768 61.0587 130.168 61.016 130.541 61.016C131.683 61.016 132.531 61.2827 133.085 61.816C133.64 62.3387 133.917 63.1547 133.917 64.264V69H132.045V67.752C131.864 68.1893 131.576 68.536 131.181 68.792C130.787 69.0373 130.317 69.16 129.773 69.16ZM130.189 67.784C130.712 67.784 131.144 67.6027 131.485 67.24C131.837 66.8773 132.013 66.4187 132.013 65.864V65.512H131.469C130.467 65.512 129.768 65.592 129.373 65.752C128.989 65.9013 128.797 66.1787 128.797 66.584C128.797 66.936 128.92 67.224 129.165 67.448C129.411 67.672 129.752 67.784 130.189 67.784ZM128.509 59.656L127.517 59.592C127.571 58.856 127.768 58.28 128.109 57.864C128.451 57.4373 128.893 57.224 129.437 57.224C129.683 57.224 129.901 57.2773 130.093 57.384C130.296 57.48 130.525 57.624 130.781 57.816C131.016 57.9867 131.203 58.1093 131.341 58.184C131.48 58.248 131.619 58.28 131.757 58.28C132.301 58.28 132.627 57.9067 132.733 57.16L133.725 57.224C133.683 57.96 133.491 58.5413 133.149 58.968C132.808 59.384 132.365 59.592 131.821 59.592C131.597 59.592 131.384 59.5493 131.181 59.464C130.989 59.3787 130.749 59.224 130.461 59C130.067 58.6907 129.747 58.536 129.501 58.536C128.968 58.536 128.637 58.9093 128.509 59.656ZM139.995 69.16C139.185 69.16 138.481 68.9947 137.883 68.664C137.286 68.3333 136.822 67.864 136.491 67.256C136.161 66.6373 135.995 65.912 135.995 65.08C135.995 64.248 136.161 63.528 136.491 62.92C136.822 62.312 137.286 61.8427 137.883 61.512C138.481 61.1813 139.185 61.016 139.995 61.016C140.806 61.016 141.51 61.1813 142.107 61.512C142.705 61.8427 143.169 62.312 143.499 62.92C143.83 63.528 143.995 64.248 143.995 65.08C143.995 65.912 143.83 66.6373 143.499 67.256C143.169 67.864 142.705 68.3333 142.107 68.664C141.51 68.9947 140.806 69.16 139.995 69.16ZM139.995 67.64C140.593 67.64 141.073 67.4267 141.435 67C141.798 66.5627 141.979 65.9227 141.979 65.08C141.979 64.2267 141.798 63.592 141.435 63.176C141.073 62.7493 140.593 62.536 139.995 62.536C139.398 62.536 138.918 62.7493 138.555 63.176C138.193 63.592 138.011 64.2267 138.011 65.08C138.011 65.9227 138.193 66.5627 138.555 67C138.918 67.4267 139.398 67.64 139.995 67.64ZM153.926 69.16C153.244 69.16 152.641 68.9947 152.118 68.664C151.606 68.3333 151.206 67.864 150.918 67.256C150.63 66.6373 150.486 65.912 150.486 65.08C150.486 64.2373 150.63 63.5173 150.918 62.92C151.206 62.312 151.606 61.8427 152.118 61.512C152.641 61.1813 153.244 61.016 153.926 61.016C154.481 61.016 154.982 61.1387 155.43 61.384C155.878 61.6293 156.214 61.9547 156.438 62.36V57.72H158.438V69H156.486V67.704C156.273 68.152 155.937 68.5093 155.478 68.776C155.02 69.032 154.502 69.16 153.926 69.16ZM154.486 67.64C155.084 67.64 155.564 67.4267 155.926 67C156.289 66.5627 156.47 65.9227 156.47 65.08C156.47 64.2267 156.289 63.592 155.926 63.176C155.564 62.7493 155.084 62.536 154.486 62.536C153.889 62.536 153.409 62.7493 153.046 63.176C152.684 63.592 152.502 64.2267 152.502 65.08C152.502 65.9227 152.684 66.5627 153.046 67C153.409 67.4267 153.889 67.64 154.486 67.64ZM160.864 59.496V57.544H163.104V59.496H160.864ZM160.992 69V61.176H162.992V69H160.992ZM168.414 69.16C167.753 69.16 167.134 69.08 166.558 68.92C165.982 68.76 165.502 68.5307 165.118 68.232L165.63 66.92C166.025 67.1867 166.468 67.3947 166.958 67.544C167.449 67.6827 167.94 67.752 168.43 67.752C168.942 67.752 169.321 67.6667 169.566 67.496C169.822 67.3147 169.95 67.08 169.95 66.792C169.95 66.344 169.62 66.056 168.958 65.928L167.358 65.624C166.004 65.368 165.326 64.664 165.326 63.512C165.326 63 165.465 62.5573 165.742 62.184C166.03 61.8107 166.425 61.5227 166.926 61.32C167.428 61.1173 168.004 61.016 168.654 61.016C169.209 61.016 169.742 61.096 170.254 61.256C170.766 61.4053 171.204 61.6347 171.566 61.944L171.022 63.256C170.713 63 170.34 62.7973 169.902 62.648C169.476 62.4987 169.065 62.424 168.67 62.424C168.148 62.424 167.758 62.5147 167.502 62.696C167.257 62.8773 167.134 63.1173 167.134 63.416C167.134 63.8853 167.438 64.1733 168.046 64.28L169.646 64.584C170.34 64.712 170.862 64.9467 171.214 65.288C171.577 65.6293 171.758 66.088 171.758 66.664C171.758 67.4427 171.454 68.056 170.846 68.504C170.238 68.9413 169.428 69.16 168.414 69.16ZM173.843 71.88V61.176H175.795V62.424C176.019 61.9973 176.355 61.656 176.803 61.4C177.261 61.144 177.779 61.016 178.355 61.016C179.037 61.016 179.635 61.1813 180.147 61.512C180.669 61.8427 181.075 62.312 181.363 62.92C181.651 63.5173 181.795 64.2373 181.795 65.08C181.795 65.912 181.651 66.6373 181.363 67.256C181.075 67.864 180.675 68.3333 180.163 68.664C179.651 68.9947 179.048 69.16 178.355 69.16C177.8 69.16 177.299 69.0427 176.851 68.808C176.413 68.5627 176.077 68.2373 175.843 67.832V71.88H173.843ZM177.795 67.64C178.392 67.64 178.872 67.4267 179.235 67C179.597 66.5627 179.779 65.9227 179.779 65.08C179.779 64.2267 179.597 63.592 179.235 63.176C178.872 62.7493 178.392 62.536 177.795 62.536C177.197 62.536 176.717 62.7493 176.355 63.176C175.992 63.592 175.811 64.2267 175.811 65.08C175.811 65.9227 175.992 66.5627 176.355 67C176.717 67.4267 177.197 67.64 177.795 67.64ZM187.485 69.16C186.674 69.16 185.97 68.9947 185.373 68.664C184.775 68.3333 184.311 67.864 183.981 67.256C183.65 66.6373 183.485 65.912 183.485 65.08C183.485 64.248 183.65 63.528 183.981 62.92C184.311 62.312 184.775 61.8427 185.373 61.512C185.97 61.1813 186.674 61.016 187.485 61.016C188.295 61.016 188.999 61.1813 189.597 61.512C190.194 61.8427 190.658 62.312 190.989 62.92C191.319 63.528 191.485 64.248 191.485 65.08C191.485 65.912 191.319 66.6373 190.989 67.256C190.658 67.864 190.194 68.3333 189.597 68.664C188.999 68.9947 188.295 69.16 187.485 69.16ZM187.485 67.64C188.082 67.64 188.562 67.4267 188.925 67C189.287 66.5627 189.469 65.9227 189.469 65.08C189.469 64.2267 189.287 63.592 188.925 63.176C188.562 62.7493 188.082 62.536 187.485 62.536C186.887 62.536 186.407 62.7493 186.045 63.176C185.682 63.592 185.501 64.2267 185.501 65.08C185.501 65.9227 185.682 66.5627 186.045 67C186.407 67.4267 186.887 67.64 187.485 67.64ZM193.615 69V61.176H195.567V62.392C195.834 61.944 196.191 61.6027 196.639 61.368C197.098 61.1333 197.61 61.016 198.175 61.016C200.021 61.016 200.943 62.088 200.943 64.232V69H198.943V64.328C198.943 63.72 198.826 63.2773 198.591 63C198.367 62.7227 198.015 62.584 197.535 62.584C196.949 62.584 196.479 62.7707 196.127 63.144C195.786 63.5067 195.615 63.992 195.615 64.6V69H193.615ZM203.455 69V61.176H205.455V69H203.455ZM203.775 60.136L205.423 56.888H207.391L205.119 60.136H203.775ZM210.317 69L206.925 61.176H209.053L211.229 66.648L213.485 61.176H215.485L212.045 69H210.317ZM220.63 69.16C219.745 69.16 218.982 68.9947 218.342 68.664C217.702 68.3333 217.206 67.864 216.854 67.256C216.513 66.648 216.342 65.928 216.342 65.096C216.342 64.2853 216.507 63.576 216.838 62.968C217.179 62.36 217.643 61.8853 218.23 61.544C218.827 61.192 219.505 61.016 220.262 61.016C221.371 61.016 222.246 61.368 222.886 62.072C223.537 62.776 223.862 63.736 223.862 64.952V65.544H218.262C218.411 66.9413 219.211 67.64 220.662 67.64C221.099 67.64 221.537 67.576 221.974 67.448C222.411 67.3093 222.811 67.096 223.174 66.808L223.734 68.152C223.361 68.4613 222.891 68.7067 222.326 68.888C221.761 69.0693 221.195 69.16 220.63 69.16ZM220.342 62.376C219.755 62.376 219.281 62.5573 218.918 62.92C218.555 63.2827 218.337 63.7733 218.262 64.392H222.198C222.155 63.7413 221.974 63.2453 221.654 62.904C221.345 62.552 220.907 62.376 220.342 62.376ZM228.646 69.16C227.718 69.16 227.03 68.9093 226.582 68.408C226.145 67.896 225.926 67.1493 225.926 66.168V57.72H227.926V66.072C227.926 67.032 228.331 67.512 229.142 67.512C229.259 67.512 229.377 67.5067 229.494 67.496C229.611 67.4853 229.723 67.464 229.83 67.432L229.798 69.016C229.414 69.112 229.03 69.16 228.646 69.16ZM55.4454 93V81.72H62.9494V83.352H57.4134V86.456H62.5974V88.088H57.4134V91.368H62.9494V93H55.4454ZM65.2803 93V85.176H67.2323V86.552C67.6163 85.624 68.4376 85.112 69.6963 85.016L70.3043 84.968L70.4323 86.664L69.2803 86.776C67.9683 86.904 67.3123 87.576 67.3123 88.792V93H65.2803ZM72.0259 93V85.176H73.9779V86.552C74.3619 85.624 75.1833 85.112 76.4419 85.016L77.0499 84.968L77.1779 86.664L76.0259 86.776C74.7139 86.904 74.0579 87.576 74.0579 88.792V93H72.0259ZM82.2146 93.16C81.4039 93.16 80.6999 92.9947 80.1026 92.664C79.5052 92.3333 79.0412 91.864 78.7106 91.256C78.3799 90.6373 78.2146 89.912 78.2146 89.08C78.2146 88.248 78.3799 87.528 78.7106 86.92C79.0412 86.312 79.5052 85.8427 80.1026 85.512C80.6999 85.1813 81.4039 85.016 82.2146 85.016C83.0252 85.016 83.7292 85.1813 84.3266 85.512C84.9239 85.8427 85.3879 86.312 85.7186 86.92C86.0492 87.528 86.2146 88.248 86.2146 89.08C86.2146 89.912 86.0492 90.6373 85.7186 91.256C85.3879 91.864 84.9239 92.3333 84.3266 92.664C83.7292 92.9947 83.0252 93.16 82.2146 93.16ZM82.2146 91.64C82.8119 91.64 83.2919 91.4267 83.6546 91C84.0172 90.5627 84.1986 89.9227 84.1986 89.08C84.1986 88.2267 84.0172 87.592 83.6546 87.176C83.2919 86.7493 82.8119 86.536 82.2146 86.536C81.6172 86.536 81.1372 86.7493 80.7746 87.176C80.4119 87.592 80.2306 88.2267 80.2306 89.08C80.2306 89.9227 80.4119 90.5627 80.7746 91C81.1372 91.4267 81.6172 91.64 82.2146 91.64ZM93.1378 93V85.176H95.0898V86.392C95.3565 85.944 95.7138 85.6027 96.1618 85.368C96.6205 85.1333 97.1325 85.016 97.6978 85.016C99.5431 85.016 100.466 86.088 100.466 88.232V93H98.4658V88.328C98.4658 87.72 98.3485 87.2773 98.1138 87C97.8898 86.7227 97.5378 86.584 97.0578 86.584C96.4712 86.584 96.0018 86.7707 95.6498 87.144C95.3085 87.5067 95.1378 87.992 95.1378 88.6V93H93.1378ZM106.545 93.16C105.735 93.16 105.031 92.9947 104.433 92.664C103.836 92.3333 103.372 91.864 103.041 91.256C102.711 90.6373 102.545 89.912 102.545 89.08C102.545 88.248 102.711 87.528 103.041 86.92C103.372 86.312 103.836 85.8427 104.433 85.512C105.031 85.1813 105.735 85.016 106.545 85.016C107.356 85.016 108.06 85.1813 108.657 85.512C109.255 85.8427 109.719 86.312 110.049 86.92C110.38 87.528 110.545 88.248 110.545 89.08C110.545 89.912 110.38 90.6373 110.049 91.256C109.719 91.864 109.255 92.3333 108.657 92.664C108.06 92.9947 107.356 93.16 106.545 93.16ZM106.545 91.64C107.143 91.64 107.623 91.4267 107.985 91C108.348 90.5627 108.529 89.9227 108.529 89.08C108.529 88.2267 108.348 87.592 107.985 87.176C107.623 86.7493 107.143 86.536 106.545 86.536C105.948 86.536 105.468 86.7493 105.105 87.176C104.743 87.592 104.561 88.2267 104.561 89.08C104.561 89.9227 104.743 90.5627 105.105 91C105.468 91.4267 105.948 91.64 106.545 91.64ZM121.084 93.16C120.263 93.16 119.548 92.9947 118.94 92.664C118.332 92.3227 117.863 91.8427 117.532 91.224C117.202 90.6053 117.036 89.88 117.036 89.048C117.036 88.216 117.202 87.5013 117.532 86.904C117.863 86.296 118.332 85.832 118.94 85.512C119.548 85.1813 120.263 85.016 121.084 85.016C121.586 85.016 122.082 85.096 122.572 85.256C123.063 85.416 123.468 85.64 123.788 85.928L123.196 87.32C122.919 87.0747 122.604 86.888 122.252 86.76C121.911 86.632 121.58 86.568 121.26 86.568C120.567 86.568 120.028 86.7867 119.644 87.224C119.271 87.6507 119.084 88.264 119.084 89.064C119.084 89.8533 119.271 90.4773 119.644 90.936C120.028 91.384 120.567 91.608 121.26 91.608C121.57 91.608 121.9 91.544 122.252 91.416C122.604 91.288 122.919 91.096 123.196 90.84L123.788 92.248C123.468 92.5253 123.058 92.7493 122.556 92.92C122.066 93.08 121.575 93.16 121.084 93.16ZM128.024 93.16C127.459 93.16 126.952 93.0533 126.504 92.84C126.067 92.616 125.72 92.3173 125.464 91.944C125.219 91.5707 125.096 91.1493 125.096 90.68C125.096 90.104 125.246 89.6507 125.544 89.32C125.843 88.9787 126.328 88.7333 127 88.584C127.672 88.4347 128.574 88.36 129.704 88.36H130.264V88.024C130.264 87.4907 130.147 87.1067 129.912 86.872C129.678 86.6373 129.283 86.52 128.728 86.52C128.291 86.52 127.843 86.5893 127.384 86.728C126.926 86.856 126.462 87.0587 125.992 87.336L125.416 85.976C125.694 85.784 126.019 85.6187 126.392 85.48C126.776 85.3307 127.176 85.2187 127.592 85.144C128.019 85.0587 128.419 85.016 128.792 85.016C129.934 85.016 130.782 85.2827 131.336 85.816C131.891 86.3387 132.168 87.1547 132.168 88.264V93H130.296V91.752C130.115 92.1893 129.827 92.536 129.432 92.792C129.038 93.0373 128.568 93.16 128.024 93.16ZM128.44 91.784C128.963 91.784 129.395 91.6027 129.736 91.24C130.088 90.8773 130.264 90.4187 130.264 89.864V89.512H129.72C128.718 89.512 128.019 89.592 127.624 89.752C127.24 89.9013 127.048 90.1787 127.048 90.584C127.048 90.936 127.171 91.224 127.416 91.448C127.662 91.672 128.003 91.784 128.44 91.784ZM134.678 93V85.176H136.63V86.552C137.014 85.624 137.836 85.112 139.094 85.016L139.702 84.968L139.83 86.664L138.678 86.776C137.366 86.904 136.71 87.576 136.71 88.792V93H134.678ZM141.424 93V85.176H143.376V86.552C143.76 85.624 144.581 85.112 145.84 85.016L146.448 84.968L146.576 86.664L145.424 86.776C144.112 86.904 143.456 87.576 143.456 88.792V93H141.424ZM151.901 93.16C151.015 93.16 150.253 92.9947 149.613 92.664C148.973 92.3333 148.477 91.864 148.125 91.256C147.783 90.648 147.613 89.928 147.613 89.096C147.613 88.2853 147.778 87.576 148.109 86.968C148.45 86.36 148.914 85.8853 149.501 85.544C150.098 85.192 150.775 85.016 151.533 85.016C152.642 85.016 153.517 85.368 154.157 86.072C154.807 86.776 155.133 87.736 155.133 88.952V89.544H149.533C149.682 90.9413 150.482 91.64 151.933 91.64C152.37 91.64 152.807 91.576 153.245 91.448C153.682 91.3093 154.082 91.096 154.445 90.808L155.005 92.152C154.631 92.4613 154.162 92.7067 153.597 92.888C153.031 93.0693 152.466 93.16 151.901 93.16ZM151.613 86.376C151.026 86.376 150.551 86.5573 150.189 86.92C149.826 87.2827 149.607 87.7733 149.533 88.392H153.469C153.426 87.7413 153.245 87.2453 152.925 86.904C152.615 86.552 152.178 86.376 151.613 86.376ZM160.845 96.04C160.119 96.04 159.437 95.9547 158.797 95.784C158.167 95.624 157.613 95.3733 157.133 95.032L157.709 93.64C158.157 93.9387 158.637 94.1573 159.149 94.296C159.661 94.4453 160.173 94.52 160.685 94.52C162.114 94.52 162.829 93.832 162.829 92.456V91.384C162.605 91.8213 162.258 92.168 161.789 92.424C161.33 92.68 160.818 92.808 160.253 92.808C159.549 92.808 158.935 92.648 158.413 92.328C157.89 91.9973 157.485 91.5387 157.197 90.952C156.909 90.3653 156.765 89.6827 156.765 88.904C156.765 88.1253 156.909 87.448 157.197 86.872C157.485 86.2853 157.89 85.832 158.413 85.512C158.935 85.1813 159.549 85.016 160.253 85.016C160.839 85.016 161.362 85.1493 161.821 85.416C162.279 85.672 162.615 86.0187 162.829 86.456V85.176H164.781V92.216C164.781 93.4853 164.445 94.44 163.773 95.08C163.101 95.72 162.125 96.04 160.845 96.04ZM160.797 91.288C161.415 91.288 161.906 91.0747 162.269 90.648C162.631 90.2213 162.813 89.64 162.813 88.904C162.813 88.168 162.631 87.592 162.269 87.176C161.906 86.7493 161.415 86.536 160.797 86.536C160.178 86.536 159.687 86.7493 159.325 87.176C158.962 87.592 158.781 88.168 158.781 88.904C158.781 89.64 158.962 90.2213 159.325 90.648C159.687 91.0747 160.178 91.288 160.797 91.288ZM169.909 93.16C169.343 93.16 168.837 93.0533 168.389 92.84C167.951 92.616 167.605 92.3173 167.349 91.944C167.103 91.5707 166.981 91.1493 166.981 90.68C166.981 90.104 167.13 89.6507 167.429 89.32C167.727 88.9787 168.213 88.7333 168.885 88.584C169.557 88.4347 170.458 88.36 171.589 88.36H172.149V88.024C172.149 87.4907 172.031 87.1067 171.797 86.872C171.562 86.6373 171.167 86.52 170.613 86.52C170.175 86.52 169.727 86.5893 169.269 86.728C168.81 86.856 168.346 87.0587 167.877 87.336L167.301 85.976C167.578 85.784 167.903 85.6187 168.277 85.48C168.661 85.3307 169.061 85.2187 169.477 85.144C169.903 85.0587 170.303 85.016 170.677 85.016C171.818 85.016 172.666 85.2827 173.221 85.816C173.775 86.3387 174.053 87.1547 174.053 88.264V93H172.181V91.752C171.999 92.1893 171.711 92.536 171.317 92.792C170.922 93.0373 170.453 93.16 169.909 93.16ZM170.325 91.784C170.847 91.784 171.279 91.6027 171.621 91.24C171.973 90.8773 172.149 90.4187 172.149 89.864V89.512H171.605C170.602 89.512 169.903 89.592 169.509 89.752C169.125 89.9013 168.933 90.1787 168.933 90.584C168.933 90.936 169.055 91.224 169.301 91.448C169.546 91.672 169.887 91.784 170.325 91.784ZM176.595 93V85.176H178.547V86.376C178.781 85.9493 179.107 85.6187 179.523 85.384C179.939 85.1387 180.419 85.016 180.963 85.016C182.136 85.016 182.904 85.528 183.267 86.552C183.512 86.072 183.864 85.6987 184.323 85.432C184.781 85.1547 185.304 85.016 185.891 85.016C187.651 85.016 188.531 86.088 188.531 88.232V93H186.531V88.312C186.531 87.7147 186.429 87.2773 186.227 87C186.035 86.7227 185.704 86.584 185.235 86.584C184.712 86.584 184.301 86.7707 184.003 87.144C183.704 87.5067 183.555 88.0133 183.555 88.664V93H181.555V88.312C181.555 87.7147 181.453 87.2773 181.251 87C181.059 86.7227 180.733 86.584 180.275 86.584C179.752 86.584 179.341 86.7707 179.043 87.144C178.744 87.5067 178.595 88.0133 178.595 88.664V93H176.595ZM194.93 93.16C194.045 93.16 193.282 92.9947 192.642 92.664C192.002 92.3333 191.506 91.864 191.154 91.256C190.813 90.648 190.642 89.928 190.642 89.096C190.642 88.2853 190.807 87.576 191.138 86.968C191.479 86.36 191.943 85.8853 192.53 85.544C193.127 85.192 193.805 85.016 194.562 85.016C195.671 85.016 196.546 85.368 197.186 86.072C197.837 86.776 198.162 87.736 198.162 88.952V89.544H192.562C192.711 90.9413 193.511 91.64 194.962 91.64C195.399 91.64 195.837 91.576 196.274 91.448C196.711 91.3093 197.111 91.096 197.474 90.808L198.034 92.152C197.661 92.4613 197.191 92.7067 196.626 92.888C196.061 93.0693 195.495 93.16 194.93 93.16ZM194.642 86.376C194.055 86.376 193.581 86.5573 193.218 86.92C192.855 87.2827 192.637 87.7733 192.562 88.392H196.498C196.455 87.7413 196.274 87.2453 195.954 86.904C195.645 86.552 195.207 86.376 194.642 86.376ZM200.226 93V85.176H202.178V86.392C202.445 85.944 202.802 85.6027 203.25 85.368C203.709 85.1333 204.221 85.016 204.786 85.016C206.631 85.016 207.554 86.088 207.554 88.232V93H205.554V88.328C205.554 87.72 205.437 87.2773 205.202 87C204.978 86.7227 204.626 86.584 204.146 86.584C203.559 86.584 203.09 86.7707 202.738 87.144C202.397 87.5067 202.226 87.992 202.226 88.6V93H200.226ZM213.649 93.16C211.58 93.16 210.545 92.136 210.545 90.088V86.68H209.041V85.176H210.545V82.84H212.545V85.176H214.913V86.68H212.545V89.976C212.545 90.488 212.657 90.872 212.881 91.128C213.105 91.384 213.468 91.512 213.969 91.512C214.119 91.512 214.273 91.496 214.433 91.464C214.593 91.4213 214.759 91.3787 214.929 91.336L215.233 92.808C215.041 92.9147 214.796 93 214.497 93.064C214.209 93.128 213.927 93.16 213.649 93.16ZM220.176 93.16C219.365 93.16 218.661 92.9947 218.064 92.664C217.466 92.3333 217.002 91.864 216.672 91.256C216.341 90.6373 216.176 89.912 216.176 89.08C216.176 88.248 216.341 87.528 216.672 86.92C217.002 86.312 217.466 85.8427 218.064 85.512C218.661 85.1813 219.365 85.016 220.176 85.016C220.986 85.016 221.69 85.1813 222.288 85.512C222.885 85.8427 223.349 86.312 223.68 86.92C224.01 87.528 224.176 88.248 224.176 89.08C224.176 89.912 224.01 90.6373 223.68 91.256C223.349 91.864 222.885 92.3333 222.288 92.664C221.69 92.9947 220.986 93.16 220.176 93.16ZM220.176 91.64C220.773 91.64 221.253 91.4267 221.616 91C221.978 90.5627 222.16 89.9227 222.16 89.08C222.16 88.2267 221.978 87.592 221.616 87.176C221.253 86.7493 220.773 86.536 220.176 86.536C219.578 86.536 219.098 86.7493 218.736 87.176C218.373 87.592 218.192 88.2267 218.192 89.08C218.192 89.9227 218.373 90.5627 218.736 91C219.098 91.4267 219.578 91.64 220.176 91.64Z" fill="#FEF5E7"/>
</svg>
