<svg width="280" height="187" viewBox="0 0 280 187" fill="none" xmlns="http://www.w3.org/2000/svg">
<rect width="280" height="187" fill="white"/>
<path d="M50.2367 86V74.72H52.2847V86H50.2367ZM55.0567 86V78.176H57.0087V79.376C57.2434 78.9493 57.5687 78.6187 57.9847 78.384C58.4007 78.1387 58.8807 78.016 59.4247 78.016C60.598 78.016 61.366 78.528 61.7287 79.552C61.974 79.072 62.326 78.6987 62.7847 78.432C63.2434 78.1547 63.766 78.016 64.3527 78.016C66.1127 78.016 66.9927 79.088 66.9927 81.232V86H64.9927V81.312C64.9927 80.7147 64.8914 80.2773 64.6887 80C64.4967 79.7227 64.166 79.584 63.6967 79.584C63.174 79.584 62.7634 79.7707 62.4647 80.144C62.166 80.5067 62.0167 81.0133 62.0167 81.664V86H60.0167V81.312C60.0167 80.7147 59.9154 80.2773 59.7127 80C59.5207 79.7227 59.1954 79.584 58.7367 79.584C58.214 79.584 57.8034 79.7707 57.5047 80.144C57.206 80.5067 57.0567 81.0133 57.0567 81.664V86H55.0567ZM72.1119 86.16C71.5466 86.16 71.0399 86.0533 70.5919 85.84C70.1546 85.616 69.8079 85.3173 69.5519 84.944C69.3066 84.5707 69.1839 84.1493 69.1839 83.68C69.1839 83.104 69.3333 82.6507 69.6319 82.32C69.9306 81.9787 70.4159 81.7333 71.0879 81.584C71.7599 81.4347 72.6613 81.36 73.7919 81.36H74.3519V81.024C74.3519 80.4907 74.2346 80.1067 73.9999 79.872C73.7653 79.6373 73.3706 79.52 72.8159 79.52C72.3786 79.52 71.9306 79.5893 71.4719 79.728C71.0133 79.856 70.5493 80.0587 70.0799 80.336L69.5039 78.976C69.7813 78.784 70.1066 78.6187 70.4799 78.48C70.8639 78.3307 71.2639 78.2187 71.6799 78.144C72.1066 78.0587 72.5066 78.016 72.8799 78.016C74.0213 78.016 74.8693 78.2827 75.4239 78.816C75.9786 79.3387 76.2559 80.1547 76.2559 81.264V86H74.3839V84.752C74.2026 85.1893 73.9146 85.536 73.5199 85.792C73.1253 86.0373 72.6559 86.16 72.1119 86.16ZM72.5279 84.784C73.0506 84.784 73.4826 84.6027 73.8239 84.24C74.1759 83.8773 74.3519 83.4187 74.3519 82.864V82.512H73.8079C72.8053 82.512 72.1066 82.592 71.7119 82.752C71.3279 82.9013 71.1359 83.1787 71.1359 83.584C71.1359 83.936 71.2586 84.224 71.5039 84.448C71.7493 84.672 72.0906 84.784 72.5279 84.784ZM82.4139 89.04C81.6886 89.04 81.0059 88.9547 80.3659 88.784C79.7366 88.624 79.1819 88.3733 78.7019 88.032L79.2779 86.64C79.7259 86.9387 80.2059 87.1573 80.7179 87.296C81.2299 87.4453 81.7419 87.52 82.2539 87.52C83.6833 87.52 84.3979 86.832 84.3979 85.456V84.384C84.1739 84.8213 83.8273 85.168 83.3579 85.424C82.8993 85.68 82.3873 85.808 81.8219 85.808C81.1179 85.808 80.5046 85.648 79.9819 85.328C79.4593 84.9973 79.0539 84.5387 78.7659 83.952C78.4779 83.3653 78.3339 82.6827 78.3339 81.904C78.3339 81.1253 78.4779 80.448 78.7659 79.872C79.0539 79.2853 79.4593 78.832 79.9819 78.512C80.5046 78.1813 81.1179 78.016 81.8219 78.016C82.4086 78.016 82.9313 78.1493 83.3899 78.416C83.8486 78.672 84.1846 79.0187 84.3979 79.456V78.176H86.3499V85.216C86.3499 86.4853 86.0139 87.44 85.3419 88.08C84.6699 88.72 83.6939 89.04 82.4139 89.04ZM82.3659 84.288C82.9846 84.288 83.4753 84.0747 83.8379 83.648C84.2006 83.2213 84.3819 82.64 84.3819 81.904C84.3819 81.168 84.2006 80.592 83.8379 80.176C83.4753 79.7493 82.9846 79.536 82.3659 79.536C81.7473 79.536 81.2566 79.7493 80.8939 80.176C80.5313 80.592 80.3499 81.168 80.3499 81.904C80.3499 82.64 80.5313 83.2213 80.8939 83.648C81.2566 84.0747 81.7473 84.288 82.3659 84.288ZM92.7582 86.16C91.8728 86.16 91.1102 85.9947 90.4702 85.664C89.8302 85.3333 89.3342 84.864 88.9822 84.256C88.6408 83.648 88.4702 82.928 88.4702 82.096C88.4702 81.2853 88.6355 80.576 88.9662 79.968C89.3075 79.36 89.7715 78.8853 90.3582 78.544C90.9555 78.192 91.6328 78.016 92.3902 78.016C93.4995 78.016 94.3742 78.368 95.0142 79.072C95.6648 79.776 95.9902 80.736 95.9902 81.952V82.544H90.3902C90.5395 83.9413 91.3395 84.64 92.7902 84.64C93.2275 84.64 93.6648 84.576 94.1022 84.448C94.5395 84.3093 94.9395 84.096 95.3022 83.808L95.8622 85.152C95.4888 85.4613 95.0195 85.7067 94.4542 85.888C93.8888 86.0693 93.3235 86.16 92.7582 86.16ZM92.4702 79.376C91.8835 79.376 91.4088 79.5573 91.0462 79.92C90.6835 80.2827 90.4648 80.7733 90.3902 81.392H94.3262C94.2835 80.7413 94.1022 80.2453 93.7822 79.904C93.4728 79.552 93.0355 79.376 92.4702 79.376ZM98.0861 86V78.176H100.038V79.376C100.273 78.9493 100.598 78.6187 101.014 78.384C101.43 78.1387 101.91 78.016 102.454 78.016C103.627 78.016 104.395 78.528 104.758 79.552C105.003 79.072 105.355 78.6987 105.814 78.432C106.273 78.1547 106.795 78.016 107.382 78.016C109.142 78.016 110.022 79.088 110.022 81.232V86H108.022V81.312C108.022 80.7147 107.921 80.2773 107.718 80C107.526 79.7227 107.195 79.584 106.726 79.584C106.203 79.584 105.793 79.7707 105.494 80.144C105.195 80.5067 105.046 81.0133 105.046 81.664V86H103.046V81.312C103.046 80.7147 102.945 80.2773 102.742 80C102.55 79.7227 102.225 79.584 101.766 79.584C101.243 79.584 100.833 79.7707 100.534 80.144C100.235 80.5067 100.086 81.0133 100.086 81.664V86H98.0861ZM117.358 86V78.176H119.31V79.392C119.576 78.944 119.934 78.6027 120.382 78.368C120.84 78.1333 121.352 78.016 121.918 78.016C123.763 78.016 124.686 79.088 124.686 81.232V86H122.686V81.328C122.686 80.72 122.568 80.2773 122.334 80C122.11 79.7227 121.758 79.584 121.278 79.584C120.691 79.584 120.222 79.7707 119.87 80.144C119.528 80.5067 119.358 80.992 119.358 81.6V86H117.358ZM129.773 86.16C129.208 86.16 128.701 86.0533 128.253 85.84C127.816 85.616 127.469 85.3173 127.213 84.944C126.968 84.5707 126.845 84.1493 126.845 83.68C126.845 83.104 126.995 82.6507 127.293 82.32C127.592 81.9787 128.077 81.7333 128.749 81.584C129.421 81.4347 130.323 81.36 131.453 81.36H132.013V81.024C132.013 80.4907 131.896 80.1067 131.661 79.872C131.427 79.6373 131.032 79.52 130.477 79.52C130.04 79.52 129.592 79.5893 129.133 79.728C128.675 79.856 128.211 80.0587 127.741 80.336L127.165 78.976C127.443 78.784 127.768 78.6187 128.141 78.48C128.525 78.3307 128.925 78.2187 129.341 78.144C129.768 78.0587 130.168 78.016 130.541 78.016C131.683 78.016 132.531 78.2827 133.085 78.816C133.64 79.3387 133.917 80.1547 133.917 81.264V86H132.045V84.752C131.864 85.1893 131.576 85.536 131.181 85.792C130.787 86.0373 130.317 86.16 129.773 86.16ZM130.189 84.784C130.712 84.784 131.144 84.6027 131.485 84.24C131.837 83.8773 132.013 83.4187 132.013 82.864V82.512H131.469C130.467 82.512 129.768 82.592 129.373 82.752C128.989 82.9013 128.797 83.1787 128.797 83.584C128.797 83.936 128.92 84.224 129.165 84.448C129.411 84.672 129.752 84.784 130.189 84.784ZM128.509 76.656L127.517 76.592C127.571 75.856 127.768 75.28 128.109 74.864C128.451 74.4373 128.893 74.224 129.437 74.224C129.683 74.224 129.901 74.2773 130.093 74.384C130.296 74.48 130.525 74.624 130.781 74.816C131.016 74.9867 131.203 75.1093 131.341 75.184C131.48 75.248 131.619 75.28 131.757 75.28C132.301 75.28 132.627 74.9067 132.733 74.16L133.725 74.224C133.683 74.96 133.491 75.5413 133.149 75.968C132.808 76.384 132.365 76.592 131.821 76.592C131.597 76.592 131.384 76.5493 131.181 76.464C130.989 76.3787 130.749 76.224 130.461 76C130.067 75.6907 129.747 75.536 129.501 75.536C128.968 75.536 128.637 75.9093 128.509 76.656ZM139.995 86.16C139.185 86.16 138.481 85.9947 137.883 85.664C137.286 85.3333 136.822 84.864 136.491 84.256C136.161 83.6373 135.995 82.912 135.995 82.08C135.995 81.248 136.161 80.528 136.491 79.92C136.822 79.312 137.286 78.8427 137.883 78.512C138.481 78.1813 139.185 78.016 139.995 78.016C140.806 78.016 141.51 78.1813 142.107 78.512C142.705 78.8427 143.169 79.312 143.499 79.92C143.83 80.528 143.995 81.248 143.995 82.08C143.995 82.912 143.83 83.6373 143.499 84.256C143.169 84.864 142.705 85.3333 142.107 85.664C141.51 85.9947 140.806 86.16 139.995 86.16ZM139.995 84.64C140.593 84.64 141.073 84.4267 141.435 84C141.798 83.5627 141.979 82.9227 141.979 82.08C141.979 81.2267 141.798 80.592 141.435 80.176C141.073 79.7493 140.593 79.536 139.995 79.536C139.398 79.536 138.918 79.7493 138.555 80.176C138.193 80.592 138.011 81.2267 138.011 82.08C138.011 82.9227 138.193 83.5627 138.555 84C138.918 84.4267 139.398 84.64 139.995 84.64ZM153.926 86.16C153.244 86.16 152.641 85.9947 152.118 85.664C151.606 85.3333 151.206 84.864 150.918 84.256C150.63 83.6373 150.486 82.912 150.486 82.08C150.486 81.2373 150.63 80.5173 150.918 79.92C151.206 79.312 151.606 78.8427 152.118 78.512C152.641 78.1813 153.244 78.016 153.926 78.016C154.481 78.016 154.982 78.1387 155.43 78.384C155.878 78.6293 156.214 78.9547 156.438 79.36V74.72H158.438V86H156.486V84.704C156.273 85.152 155.937 85.5093 155.478 85.776C155.02 86.032 154.502 86.16 153.926 86.16ZM154.486 84.64C155.084 84.64 155.564 84.4267 155.926 84C156.289 83.5627 156.47 82.9227 156.47 82.08C156.47 81.2267 156.289 80.592 155.926 80.176C155.564 79.7493 155.084 79.536 154.486 79.536C153.889 79.536 153.409 79.7493 153.046 80.176C152.684 80.592 152.502 81.2267 152.502 82.08C152.502 82.9227 152.684 83.5627 153.046 84C153.409 84.4267 153.889 84.64 154.486 84.64ZM160.864 76.496V74.544H163.104V76.496H160.864ZM160.992 86V78.176H162.992V86H160.992ZM168.414 86.16C167.753 86.16 167.134 86.08 166.558 85.92C165.982 85.76 165.502 85.5307 165.118 85.232L165.63 83.92C166.025 84.1867 166.468 84.3947 166.958 84.544C167.449 84.6827 167.94 84.752 168.43 84.752C168.942 84.752 169.321 84.6667 169.566 84.496C169.822 84.3147 169.95 84.08 169.95 83.792C169.95 83.344 169.62 83.056 168.958 82.928L167.358 82.624C166.004 82.368 165.326 81.664 165.326 80.512C165.326 80 165.465 79.5573 165.742 79.184C166.03 78.8107 166.425 78.5227 166.926 78.32C167.428 78.1173 168.004 78.016 168.654 78.016C169.209 78.016 169.742 78.096 170.254 78.256C170.766 78.4053 171.204 78.6347 171.566 78.944L171.022 80.256C170.713 80 170.34 79.7973 169.902 79.648C169.476 79.4987 169.065 79.424 168.67 79.424C168.148 79.424 167.758 79.5147 167.502 79.696C167.257 79.8773 167.134 80.1173 167.134 80.416C167.134 80.8853 167.438 81.1733 168.046 81.28L169.646 81.584C170.34 81.712 170.862 81.9467 171.214 82.288C171.577 82.6293 171.758 83.088 171.758 83.664C171.758 84.4427 171.454 85.056 170.846 85.504C170.238 85.9413 169.428 86.16 168.414 86.16ZM173.843 88.88V78.176H175.795V79.424C176.019 78.9973 176.355 78.656 176.803 78.4C177.261 78.144 177.779 78.016 178.355 78.016C179.037 78.016 179.635 78.1813 180.147 78.512C180.669 78.8427 181.075 79.312 181.363 79.92C181.651 80.5173 181.795 81.2373 181.795 82.08C181.795 82.912 181.651 83.6373 181.363 84.256C181.075 84.864 180.675 85.3333 180.163 85.664C179.651 85.9947 179.048 86.16 178.355 86.16C177.8 86.16 177.299 86.0427 176.851 85.808C176.413 85.5627 176.077 85.2373 175.843 84.832V88.88H173.843ZM177.795 84.64C178.392 84.64 178.872 84.4267 179.235 84C179.597 83.5627 179.779 82.9227 179.779 82.08C179.779 81.2267 179.597 80.592 179.235 80.176C178.872 79.7493 178.392 79.536 177.795 79.536C177.197 79.536 176.717 79.7493 176.355 80.176C175.992 80.592 175.811 81.2267 175.811 82.08C175.811 82.9227 175.992 83.5627 176.355 84C176.717 84.4267 177.197 84.64 177.795 84.64ZM187.485 86.16C186.674 86.16 185.97 85.9947 185.373 85.664C184.775 85.3333 184.311 84.864 183.981 84.256C183.65 83.6373 183.485 82.912 183.485 82.08C183.485 81.248 183.65 80.528 183.981 79.92C184.311 79.312 184.775 78.8427 185.373 78.512C185.97 78.1813 186.674 78.016 187.485 78.016C188.295 78.016 188.999 78.1813 189.597 78.512C190.194 78.8427 190.658 79.312 190.989 79.92C191.319 80.528 191.485 81.248 191.485 82.08C191.485 82.912 191.319 83.6373 190.989 84.256C190.658 84.864 190.194 85.3333 189.597 85.664C188.999 85.9947 188.295 86.16 187.485 86.16ZM187.485 84.64C188.082 84.64 188.562 84.4267 188.925 84C189.287 83.5627 189.469 82.9227 189.469 82.08C189.469 81.2267 189.287 80.592 188.925 80.176C188.562 79.7493 188.082 79.536 187.485 79.536C186.887 79.536 186.407 79.7493 186.045 80.176C185.682 80.592 185.501 81.2267 185.501 82.08C185.501 82.9227 185.682 83.5627 186.045 84C186.407 84.4267 186.887 84.64 187.485 84.64ZM193.615 86V78.176H195.567V79.392C195.834 78.944 196.191 78.6027 196.639 78.368C197.098 78.1333 197.61 78.016 198.175 78.016C200.021 78.016 200.943 79.088 200.943 81.232V86H198.943V81.328C198.943 80.72 198.826 80.2773 198.591 80C198.367 79.7227 198.015 79.584 197.535 79.584C196.949 79.584 196.479 79.7707 196.127 80.144C195.786 80.5067 195.615 80.992 195.615 81.6V86H193.615ZM203.455 86V78.176H205.455V86H203.455ZM203.775 77.136L205.423 73.888H207.391L205.119 77.136H203.775ZM210.317 86L206.925 78.176H209.053L211.229 83.648L213.485 78.176H215.485L212.045 86H210.317ZM220.63 86.16C219.745 86.16 218.982 85.9947 218.342 85.664C217.702 85.3333 217.206 84.864 216.854 84.256C216.513 83.648 216.342 82.928 216.342 82.096C216.342 81.2853 216.507 80.576 216.838 79.968C217.179 79.36 217.643 78.8853 218.23 78.544C218.827 78.192 219.505 78.016 220.262 78.016C221.371 78.016 222.246 78.368 222.886 79.072C223.537 79.776 223.862 80.736 223.862 81.952V82.544H218.262C218.411 83.9413 219.211 84.64 220.662 84.64C221.099 84.64 221.537 84.576 221.974 84.448C222.411 84.3093 222.811 84.096 223.174 83.808L223.734 85.152C223.361 85.4613 222.891 85.7067 222.326 85.888C221.761 86.0693 221.195 86.16 220.63 86.16ZM220.342 79.376C219.755 79.376 219.281 79.5573 218.918 79.92C218.555 80.2827 218.337 80.7733 218.262 81.392H222.198C222.155 80.7413 221.974 80.2453 221.654 79.904C221.345 79.552 220.907 79.376 220.342 79.376ZM228.646 86.16C227.718 86.16 227.03 85.9093 226.582 85.408C226.145 84.896 225.926 84.1493 225.926 83.168V74.72H227.926V83.072C227.926 84.032 228.331 84.512 229.142 84.512C229.259 84.512 229.377 84.5067 229.494 84.496C229.611 84.4853 229.723 84.464 229.83 84.432L229.798 86.016C229.414 86.112 229.03 86.16 228.646 86.16ZM55.4454 110V98.72H62.9494V100.352H57.4134V103.456H62.5974V105.088H57.4134V108.368H62.9494V110H55.4454ZM65.2803 110V102.176H67.2323V103.552C67.6163 102.624 68.4376 102.112 69.6963 102.016L70.3043 101.968L70.4323 103.664L69.2803 103.776C67.9683 103.904 67.3123 104.576 67.3123 105.792V110H65.2803ZM72.0259 110V102.176H73.9779V103.552C74.3619 102.624 75.1833 102.112 76.4419 102.016L77.0499 101.968L77.1779 103.664L76.0259 103.776C74.7139 103.904 74.0579 104.576 74.0579 105.792V110H72.0259ZM82.2146 110.16C81.4039 110.16 80.6999 109.995 80.1026 109.664C79.5052 109.333 79.0412 108.864 78.7106 108.256C78.3799 107.637 78.2146 106.912 78.2146 106.08C78.2146 105.248 78.3799 104.528 78.7106 103.92C79.0412 103.312 79.5052 102.843 80.1026 102.512C80.6999 102.181 81.4039 102.016 82.2146 102.016C83.0252 102.016 83.7292 102.181 84.3266 102.512C84.9239 102.843 85.3879 103.312 85.7186 103.92C86.0492 104.528 86.2146 105.248 86.2146 106.08C86.2146 106.912 86.0492 107.637 85.7186 108.256C85.3879 108.864 84.9239 109.333 84.3266 109.664C83.7292 109.995 83.0252 110.16 82.2146 110.16ZM82.2146 108.64C82.8119 108.64 83.2919 108.427 83.6546 108C84.0172 107.563 84.1986 106.923 84.1986 106.08C84.1986 105.227 84.0172 104.592 83.6546 104.176C83.2919 103.749 82.8119 103.536 82.2146 103.536C81.6172 103.536 81.1372 103.749 80.7746 104.176C80.4119 104.592 80.2306 105.227 80.2306 106.08C80.2306 106.923 80.4119 107.563 80.7746 108C81.1372 108.427 81.6172 108.64 82.2146 108.64ZM93.1378 110V102.176H95.0898V103.392C95.3565 102.944 95.7138 102.603 96.1618 102.368C96.6205 102.133 97.1325 102.016 97.6978 102.016C99.5431 102.016 100.466 103.088 100.466 105.232V110H98.4658V105.328C98.4658 104.72 98.3485 104.277 98.1138 104C97.8898 103.723 97.5378 103.584 97.0578 103.584C96.4712 103.584 96.0018 103.771 95.6498 104.144C95.3085 104.507 95.1378 104.992 95.1378 105.6V110H93.1378ZM106.545 110.16C105.735 110.16 105.031 109.995 104.433 109.664C103.836 109.333 103.372 108.864 103.041 108.256C102.711 107.637 102.545 106.912 102.545 106.08C102.545 105.248 102.711 104.528 103.041 103.92C103.372 103.312 103.836 102.843 104.433 102.512C105.031 102.181 105.735 102.016 106.545 102.016C107.356 102.016 108.06 102.181 108.657 102.512C109.255 102.843 109.719 103.312 110.049 103.92C110.38 104.528 110.545 105.248 110.545 106.08C110.545 106.912 110.38 107.637 110.049 108.256C109.719 108.864 109.255 109.333 108.657 109.664C108.06 109.995 107.356 110.16 106.545 110.16ZM106.545 108.64C107.143 108.64 107.623 108.427 107.985 108C108.348 107.563 108.529 106.923 108.529 106.08C108.529 105.227 108.348 104.592 107.985 104.176C107.623 103.749 107.143 103.536 106.545 103.536C105.948 103.536 105.468 103.749 105.105 104.176C104.743 104.592 104.561 105.227 104.561 106.08C104.561 106.923 104.743 107.563 105.105 108C105.468 108.427 105.948 108.64 106.545 108.64ZM121.084 110.16C120.263 110.16 119.548 109.995 118.94 109.664C118.332 109.323 117.863 108.843 117.532 108.224C117.202 107.605 117.036 106.88 117.036 106.048C117.036 105.216 117.202 104.501 117.532 103.904C117.863 103.296 118.332 102.832 118.94 102.512C119.548 102.181 120.263 102.016 121.084 102.016C121.586 102.016 122.082 102.096 122.572 102.256C123.063 102.416 123.468 102.64 123.788 102.928L123.196 104.32C122.919 104.075 122.604 103.888 122.252 103.76C121.911 103.632 121.58 103.568 121.26 103.568C120.567 103.568 120.028 103.787 119.644 104.224C119.271 104.651 119.084 105.264 119.084 106.064C119.084 106.853 119.271 107.477 119.644 107.936C120.028 108.384 120.567 108.608 121.26 108.608C121.57 108.608 121.9 108.544 122.252 108.416C122.604 108.288 122.919 108.096 123.196 107.84L123.788 109.248C123.468 109.525 123.058 109.749 122.556 109.92C122.066 110.08 121.575 110.16 121.084 110.16ZM128.024 110.16C127.459 110.16 126.952 110.053 126.504 109.84C126.067 109.616 125.72 109.317 125.464 108.944C125.219 108.571 125.096 108.149 125.096 107.68C125.096 107.104 125.246 106.651 125.544 106.32C125.843 105.979 126.328 105.733 127 105.584C127.672 105.435 128.574 105.36 129.704 105.36H130.264V105.024C130.264 104.491 130.147 104.107 129.912 103.872C129.678 103.637 129.283 103.52 128.728 103.52C128.291 103.52 127.843 103.589 127.384 103.728C126.926 103.856 126.462 104.059 125.992 104.336L125.416 102.976C125.694 102.784 126.019 102.619 126.392 102.48C126.776 102.331 127.176 102.219 127.592 102.144C128.019 102.059 128.419 102.016 128.792 102.016C129.934 102.016 130.782 102.283 131.336 102.816C131.891 103.339 132.168 104.155 132.168 105.264V110H130.296V108.752C130.115 109.189 129.827 109.536 129.432 109.792C129.038 110.037 128.568 110.16 128.024 110.16ZM128.44 108.784C128.963 108.784 129.395 108.603 129.736 108.24C130.088 107.877 130.264 107.419 130.264 106.864V106.512H129.72C128.718 106.512 128.019 106.592 127.624 106.752C127.24 106.901 127.048 107.179 127.048 107.584C127.048 107.936 127.171 108.224 127.416 108.448C127.662 108.672 128.003 108.784 128.44 108.784ZM134.678 110V102.176H136.63V103.552C137.014 102.624 137.836 102.112 139.094 102.016L139.702 101.968L139.83 103.664L138.678 103.776C137.366 103.904 136.71 104.576 136.71 105.792V110H134.678ZM141.424 110V102.176H143.376V103.552C143.76 102.624 144.581 102.112 145.84 102.016L146.448 101.968L146.576 103.664L145.424 103.776C144.112 103.904 143.456 104.576 143.456 105.792V110H141.424ZM151.901 110.16C151.015 110.16 150.253 109.995 149.613 109.664C148.973 109.333 148.477 108.864 148.125 108.256C147.783 107.648 147.613 106.928 147.613 106.096C147.613 105.285 147.778 104.576 148.109 103.968C148.45 103.36 148.914 102.885 149.501 102.544C150.098 102.192 150.775 102.016 151.533 102.016C152.642 102.016 153.517 102.368 154.157 103.072C154.807 103.776 155.133 104.736 155.133 105.952V106.544H149.533C149.682 107.941 150.482 108.64 151.933 108.64C152.37 108.64 152.807 108.576 153.245 108.448C153.682 108.309 154.082 108.096 154.445 107.808L155.005 109.152C154.631 109.461 154.162 109.707 153.597 109.888C153.031 110.069 152.466 110.16 151.901 110.16ZM151.613 103.376C151.026 103.376 150.551 103.557 150.189 103.92C149.826 104.283 149.607 104.773 149.533 105.392H153.469C153.426 104.741 153.245 104.245 152.925 103.904C152.615 103.552 152.178 103.376 151.613 103.376ZM160.845 113.04C160.119 113.04 159.437 112.955 158.797 112.784C158.167 112.624 157.613 112.373 157.133 112.032L157.709 110.64C158.157 110.939 158.637 111.157 159.149 111.296C159.661 111.445 160.173 111.52 160.685 111.52C162.114 111.52 162.829 110.832 162.829 109.456V108.384C162.605 108.821 162.258 109.168 161.789 109.424C161.33 109.68 160.818 109.808 160.253 109.808C159.549 109.808 158.935 109.648 158.413 109.328C157.89 108.997 157.485 108.539 157.197 107.952C156.909 107.365 156.765 106.683 156.765 105.904C156.765 105.125 156.909 104.448 157.197 103.872C157.485 103.285 157.89 102.832 158.413 102.512C158.935 102.181 159.549 102.016 160.253 102.016C160.839 102.016 161.362 102.149 161.821 102.416C162.279 102.672 162.615 103.019 162.829 103.456V102.176H164.781V109.216C164.781 110.485 164.445 111.44 163.773 112.08C163.101 112.72 162.125 113.04 160.845 113.04ZM160.797 108.288C161.415 108.288 161.906 108.075 162.269 107.648C162.631 107.221 162.813 106.64 162.813 105.904C162.813 105.168 162.631 104.592 162.269 104.176C161.906 103.749 161.415 103.536 160.797 103.536C160.178 103.536 159.687 103.749 159.325 104.176C158.962 104.592 158.781 105.168 158.781 105.904C158.781 106.64 158.962 107.221 159.325 107.648C159.687 108.075 160.178 108.288 160.797 108.288ZM169.909 110.16C169.343 110.16 168.837 110.053 168.389 109.84C167.951 109.616 167.605 109.317 167.349 108.944C167.103 108.571 166.981 108.149 166.981 107.68C166.981 107.104 167.13 106.651 167.429 106.32C167.727 105.979 168.213 105.733 168.885 105.584C169.557 105.435 170.458 105.36 171.589 105.36H172.149V105.024C172.149 104.491 172.031 104.107 171.797 103.872C171.562 103.637 171.167 103.52 170.613 103.52C170.175 103.52 169.727 103.589 169.269 103.728C168.81 103.856 168.346 104.059 167.877 104.336L167.301 102.976C167.578 102.784 167.903 102.619 168.277 102.48C168.661 102.331 169.061 102.219 169.477 102.144C169.903 102.059 170.303 102.016 170.677 102.016C171.818 102.016 172.666 102.283 173.221 102.816C173.775 103.339 174.053 104.155 174.053 105.264V110H172.181V108.752C171.999 109.189 171.711 109.536 171.317 109.792C170.922 110.037 170.453 110.16 169.909 110.16ZM170.325 108.784C170.847 108.784 171.279 108.603 171.621 108.24C171.973 107.877 172.149 107.419 172.149 106.864V106.512H171.605C170.602 106.512 169.903 106.592 169.509 106.752C169.125 106.901 168.933 107.179 168.933 107.584C168.933 107.936 169.055 108.224 169.301 108.448C169.546 108.672 169.887 108.784 170.325 108.784ZM176.595 110V102.176H178.547V103.376C178.781 102.949 179.107 102.619 179.523 102.384C179.939 102.139 180.419 102.016 180.963 102.016C182.136 102.016 182.904 102.528 183.267 103.552C183.512 103.072 183.864 102.699 184.323 102.432C184.781 102.155 185.304 102.016 185.891 102.016C187.651 102.016 188.531 103.088 188.531 105.232V110H186.531V105.312C186.531 104.715 186.429 104.277 186.227 104C186.035 103.723 185.704 103.584 185.235 103.584C184.712 103.584 184.301 103.771 184.003 104.144C183.704 104.507 183.555 105.013 183.555 105.664V110H181.555V105.312C181.555 104.715 181.453 104.277 181.251 104C181.059 103.723 180.733 103.584 180.275 103.584C179.752 103.584 179.341 103.771 179.043 104.144C178.744 104.507 178.595 105.013 178.595 105.664V110H176.595ZM194.93 110.16C194.045 110.16 193.282 109.995 192.642 109.664C192.002 109.333 191.506 108.864 191.154 108.256C190.813 107.648 190.642 106.928 190.642 106.096C190.642 105.285 190.807 104.576 191.138 103.968C191.479 103.36 191.943 102.885 192.53 102.544C193.127 102.192 193.805 102.016 194.562 102.016C195.671 102.016 196.546 102.368 197.186 103.072C197.837 103.776 198.162 104.736 198.162 105.952V106.544H192.562C192.711 107.941 193.511 108.64 194.962 108.64C195.399 108.64 195.837 108.576 196.274 108.448C196.711 108.309 197.111 108.096 197.474 107.808L198.034 109.152C197.661 109.461 197.191 109.707 196.626 109.888C196.061 110.069 195.495 110.16 194.93 110.16ZM194.642 103.376C194.055 103.376 193.581 103.557 193.218 103.92C192.855 104.283 192.637 104.773 192.562 105.392H196.498C196.455 104.741 196.274 104.245 195.954 103.904C195.645 103.552 195.207 103.376 194.642 103.376ZM200.226 110V102.176H202.178V103.392C202.445 102.944 202.802 102.603 203.25 102.368C203.709 102.133 204.221 102.016 204.786 102.016C206.631 102.016 207.554 103.088 207.554 105.232V110H205.554V105.328C205.554 104.72 205.437 104.277 205.202 104C204.978 103.723 204.626 103.584 204.146 103.584C203.559 103.584 203.09 103.771 202.738 104.144C202.397 104.507 202.226 104.992 202.226 105.6V110H200.226ZM213.649 110.16C211.58 110.16 210.545 109.136 210.545 107.088V103.68H209.041V102.176H210.545V99.84H212.545V102.176H214.913V103.68H212.545V106.976C212.545 107.488 212.657 107.872 212.881 108.128C213.105 108.384 213.468 108.512 213.969 108.512C214.119 108.512 214.273 108.496 214.433 108.464C214.593 108.421 214.759 108.379 214.929 108.336L215.233 109.808C215.041 109.915 214.796 110 214.497 110.064C214.209 110.128 213.927 110.16 213.649 110.16ZM220.176 110.16C219.365 110.16 218.661 109.995 218.064 109.664C217.466 109.333 217.002 108.864 216.672 108.256C216.341 107.637 216.176 106.912 216.176 106.08C216.176 105.248 216.341 104.528 216.672 103.92C217.002 103.312 217.466 102.843 218.064 102.512C218.661 102.181 219.365 102.016 220.176 102.016C220.986 102.016 221.69 102.181 222.288 102.512C222.885 102.843 223.349 103.312 223.68 103.92C224.01 104.528 224.176 105.248 224.176 106.08C224.176 106.912 224.01 107.637 223.68 108.256C223.349 108.864 222.885 109.333 222.288 109.664C221.69 109.995 220.986 110.16 220.176 110.16ZM220.176 108.64C220.773 108.64 221.253 108.427 221.616 108C221.978 107.563 222.16 106.923 222.16 106.08C222.16 105.227 221.978 104.592 221.616 104.176C221.253 103.749 220.773 103.536 220.176 103.536C219.578 103.536 219.098 103.749 218.736 104.176C218.373 104.592 218.192 105.227 218.192 106.08C218.192 106.923 218.373 107.563 218.736 108C219.098 108.427 219.578 108.64 220.176 108.64Z" fill="#D22E2E"/>
</svg>
