<svg width="97" height="96" viewBox="0 0 97 96" fill="none" xmlns="http://www.w3.org/2000/svg">
<path d="M20.1666 24H92.1666V72H20.1666V24ZM56.1666 36C59.3492 36 62.4015 37.2643 64.6519 39.5147C66.9023 41.7652 68.1666 44.8174 68.1666 48C68.1666 51.1826 66.9023 54.2348 64.6519 56.4853C62.4015 58.7357 59.3492 60 56.1666 60C52.984 60 49.9318 58.7357 47.6813 56.4853C45.4309 54.2348 44.1666 51.1826 44.1666 48C44.1666 44.8174 45.4309 41.7652 47.6813 39.5147C49.9318 37.2643 52.984 36 56.1666 36ZM36.1666 32C36.1666 34.1217 35.3238 36.1566 33.8235 37.6569C32.3232 39.1571 30.2884 40 28.1666 40V56C30.2884 56 32.3232 56.8429 33.8235 58.3431C35.3238 59.8434 36.1666 61.8783 36.1666 64H76.1666C76.1666 61.8783 77.0095 59.8434 78.5098 58.3431C80.0101 56.8429 82.0449 56 84.1666 56V40C82.0449 40 80.0101 39.1571 78.5098 37.6569C77.0095 36.1566 76.1666 34.1217 76.1666 32H36.1666ZM4.16663 40H12.1666V80H76.1666V88H4.16663V40Z" fill="#E1861B"/>
</svg>
