<svg width="40" height="40" viewBox="0 0 40 40" fill="none" xmlns="http://www.w3.org/2000/svg">
<path d="M28.5333 16.4667C27.6 15.5333 26.3333 15 25 15C23.6667 15 22.4 15.5333 21.4667 16.4667C20.5333 17.4 20 18.6667 20 20C20 21.3333 20.5333 22.6 21.4667 23.5333C22.4 24.4667 23.6667 25 25 25C26.3333 25 27.6 24.4667 28.5333 23.5333C29.4667 22.6 30 21.3333 30 20C30 18.6667 29.4667 17.4 28.5333 16.4667ZM11.6667 10V30H38.3333V10H11.6667ZM35 23.3333C34.1167 23.3333 33.2667 23.6833 32.65 24.3167C32.0167 24.9333 31.6667 25.7833 31.6667 26.6667H18.3333C18.3333 25.7833 17.9833 24.9333 17.35 24.3167C16.7333 23.6833 15.8833 23.3333 15 23.3333V16.6667C15.8833 16.6667 16.7333 16.3167 17.35 15.6833C17.9833 15.0667 18.3333 14.2167 18.3333 13.3333H31.6667C31.6667 14.2167 32.0167 15.0667 32.65 15.6833C33.2667 16.3167 34.1167 16.6667 35 16.6667V23.3333ZM8.33333 13.3333H5C4.08333 13.3333 3.33333 12.5833 3.33333 11.6667C3.33333 10.75 4.08333 10 5 10H8.33333V13.3333ZM8.33333 21.6667H3.33333C2.41667 21.6667 1.66667 20.9167 1.66667 20C1.66667 19.0833 2.41667 18.3333 3.33333 18.3333H8.33333V21.6667ZM8.33333 30H1.66667C0.746667 30 0 29.25 0 28.3333C0 27.4167 0.746667 26.6667 1.66667 26.6667H8.33333V30Z" fill="#E1861B"/>
</svg>
