<svg width="243" height="122" viewBox="0 0 243 122" fill="none" xmlns="http://www.w3.org/2000/svg">
<g clip-path="url(#clip0_57_703)">
<path d="M110.589 10.7693H115.612L119.555 17.608L120.148 18.6368H131.379H132.565L131.973 17.608L128.029 10.7693L125.764 6.83953L121.821 0H116.798H109.404H104.381L98.1718 10.7693L87.4169 29.4248L72.5442 55.2211H84.961L99.8337 29.4248L110.589 10.7693Z" fill="#E1861B"/>
<path d="M151.249 0H134.151L138.158 6.87866L140.416 10.7551H151.232C156.38 10.7551 160.554 14.9337 160.554 20.0904C160.554 22.6688 159.51 25.0028 157.824 26.6909C156.138 28.3791 153.807 29.4248 151.233 29.4248H112.743L97.8704 55.2211H110.287L118.959 40.1799H151.249C156.789 40.1799 161.803 37.9303 165.435 34.2964C169.064 30.6589 171.31 25.6372 171.31 20.0904C171.311 8.99589 162.328 0 151.249 0Z" fill="#1E1A17"/>
<path d="M18.5453 89.9876L13.0755 100.125H20.2154L18.5453 89.9876ZM18.3365 83.5498H24.3909L28.9421 109.635L31.8857 110.053V112.582H18.3365V110.011L21.1131 109.761L21.7395 109.071L20.7165 102.989H11.4471L8.02325 109.196L8.50344 109.844L11.0504 110.053V112.582H0.883301V110.095L3.40942 109.719L18.3365 83.5498ZM35.1843 83.8632H48.9423V86.2463L46.2072 86.4342L45.6227 86.8524L42.8879 101.149C42.707 101.957 42.5887 102.598 42.533 103.072C42.4773 103.532 42.4495 103.964 42.4495 104.368C42.4495 105.817 42.9575 106.967 43.9736 107.817C44.9895 108.653 46.3744 109.071 48.1282 109.071C48.977 109.071 49.8051 108.939 50.6124 108.674C51.4196 108.395 52.1644 107.998 52.8464 107.482C53.4587 107.023 53.9529 106.402 54.3283 105.622C54.7042 104.842 55.0663 103.608 55.4143 101.923L58.3996 87.4166L58.0237 86.6431L55.059 86.2463V83.8632H65.7066V86.3088L62.8881 86.6016L62.2408 87.2492L59.4642 101.358C59.005 103.741 58.4971 105.532 57.9404 106.73C57.3837 107.914 56.653 108.939 55.7483 109.803C54.5511 110.931 53.0828 111.788 51.3431 112.374C49.6033 112.945 47.6199 113.231 45.3931 113.231C42.2059 113.231 39.6798 112.52 37.8148 111.098C35.9498 109.663 35.0173 107.747 35.0173 105.35C35.0173 104.458 35.2051 103.086 35.5809 101.233L35.6018 101.128L38.3785 87.0194L37.7104 86.5176L35.1843 86.3507V83.8632ZM67.9611 83.8632H93.6191L91.9491 92.5586H88.5251V87.2912L87.7525 86.7685H83.7861L79.4647 109.196L79.9239 109.719L83.0554 110.053V112.582H68.3789V110.011L71.6775 109.803L72.2829 109.071L76.4581 86.7685H72.5335L71.6775 87.2912L69.9236 92.5586H66.2492L67.9611 83.8632ZM114.955 94.8158C114.955 92.1267 114.475 90.0574 113.515 88.6079C112.569 87.1589 111.218 86.4342 109.465 86.4342C108.421 86.4342 107.426 86.7475 106.479 87.3746C105.547 88.0018 104.663 88.9422 103.828 90.1965C102.854 91.6596 102.095 93.4083 101.553 95.4429C101.024 97.4775 100.759 99.6234 100.759 101.881C100.759 104.389 101.26 106.375 102.262 107.838C103.264 109.287 104.614 110.011 106.313 110.011C107.454 110.011 108.553 109.642 109.611 108.904C110.669 108.151 111.566 107.106 112.304 105.768C113.153 104.208 113.807 102.48 114.267 100.585C114.726 98.6898 114.955 96.7665 114.955 94.8158ZM110.029 83.2151C113.995 83.2151 117.12 84.3024 119.402 86.4761C121.699 88.6357 122.847 91.5899 122.847 95.3385C122.847 97.9861 122.374 100.438 121.427 102.696C120.481 104.953 119.089 106.953 117.252 108.695C115.651 110.186 113.835 111.314 111.803 112.081C109.785 112.847 107.586 113.231 105.206 113.231C101.448 113.231 98.4489 112.109 96.208 109.865C93.9672 107.622 92.8465 104.619 92.8465 100.856C92.8465 99.0588 93.0902 97.317 93.5772 95.6308C94.0646 93.9451 94.7881 92.3634 95.7484 90.8861C97.2936 88.4478 99.3117 86.5596 101.803 85.2219C104.308 83.8842 107.05 83.2151 110.029 83.2151ZM138.693 86.7685L136.292 99.2262C136.626 99.2262 136.995 99.2399 137.398 99.2677C137.496 99.2677 137.552 99.2677 137.565 99.2677C139.723 99.2677 141.4 98.5571 142.597 97.1359C143.808 95.7006 144.413 93.7148 144.413 91.1789C144.413 89.7016 144.003 88.5942 143.181 87.8554C142.36 87.1032 141.135 86.727 139.507 86.727C139.423 86.727 139.291 86.7338 139.11 86.7475C138.929 86.7616 138.79 86.7685 138.693 86.7685ZM128.296 83.8632H141.803C145.422 83.8632 148.073 84.4693 149.758 85.6816C151.442 86.8939 152.284 88.7963 152.284 91.3878C152.284 94.6206 151.059 97.2335 148.609 99.2262C146.16 101.219 142.91 102.215 138.86 102.215C138.345 102.215 137.83 102.201 137.315 102.173C136.8 102.145 136.271 102.104 135.728 102.048L134.413 109.113L134.935 109.886L137.92 110.053V112.582H123.766V110.053L126.542 109.803L127.231 109.238L131.511 87.2912L131.031 86.4342L128.296 86.2043V83.8632ZM164.935 89.9876L159.465 100.125H166.605L164.935 89.9876ZM164.727 83.5498H170.781L175.332 109.635L178.276 110.053V112.582H164.727V110.011L167.503 109.761L168.129 109.071L167.106 102.989H157.837L154.413 109.196L154.893 109.844L157.44 110.053V112.582H147.273V110.095L149.799 109.719L164.727 83.5498ZM193.474 86.685L191.47 97.1984C191.609 97.2267 191.755 97.2472 191.908 97.2614C192.061 97.2614 192.284 97.2614 192.576 97.2614C194.636 97.2614 196.278 96.6552 197.503 95.4429C198.728 94.2306 199.341 92.6211 199.341 90.6147C199.341 89.2629 198.902 88.2736 198.025 87.6465C197.149 87.0057 195.756 86.685 193.85 86.685H193.474ZM183.036 83.8632H197.524C200.851 83.8632 203.3 84.3717 204.873 85.3893C206.445 86.4064 207.232 87.9949 207.232 90.1545C207.232 92.3565 206.348 94.1818 204.58 95.6308C202.827 97.0803 200.405 97.951 197.315 98.2438C198.401 98.439 199.327 98.7801 200.092 99.2677C200.871 99.7416 201.519 100.369 202.033 101.149C202.618 102.083 203.224 103.678 203.85 105.936C204.017 106.563 204.149 107.036 204.246 107.357C204.567 108.472 205.04 109.224 205.666 109.614C206.306 109.99 207.441 110.179 209.069 110.179V112.582C207.789 112.736 206.675 112.84 205.729 112.896C204.783 112.966 203.933 113.001 203.182 113.001C201.957 113.001 200.906 112.84 200.029 112.52C199.153 112.185 198.408 111.663 197.795 110.952C197.155 110.228 196.633 108.66 196.23 106.249C196.16 105.887 196.112 105.615 196.083 105.434C195.68 103.233 195.109 101.783 194.372 101.087C193.648 100.39 192.493 100.041 190.906 100.041L189.111 109.238L189.403 109.803L192.451 110.053V112.582H178.464V110.053L181.156 109.803L181.887 109.238L186.209 87.2492L185.729 86.5596L183.036 86.3088V83.8632ZM213.391 83.8632H227.253V86.2463L224.33 86.5176L223.871 87.0613L221.762 97.7631H223.307L233.537 87.2492L233.307 86.6016L230.739 86.3922V83.8632H242.243V86.3088L238.735 86.7685L229.508 96.0491L234.685 106.124C235.59 107.88 236.404 108.994 237.128 109.468C237.852 109.942 238.861 110.179 240.155 110.179C240.239 110.179 240.371 110.172 240.552 110.158C240.733 110.144 240.872 110.137 240.969 110.137L240.948 112.499C240.781 112.513 240.538 112.534 240.218 112.561C237.281 112.826 235.353 112.959 234.435 112.959C232.709 112.959 231.331 112.568 230.301 111.788C229.271 110.994 228.151 109.315 226.94 106.751L223.913 100.292H221.303L219.633 109.154L220.05 109.969L222.702 110.053V112.582H208.86V110.053L211.721 109.844L212.326 109.196L216.606 87.0613L216.125 86.4342L213.391 86.3088V83.8632Z" fill="#1E1A17"/>
</g>
<defs>
<clipPath id="clip0_57_703">
<rect width="242" height="122" fill="white" transform="translate(0.5)"/>
</clipPath>
</defs>
</svg>
