<svg width="174" height="27" viewBox="0 0 174 27" fill="none" xmlns="http://www.w3.org/2000/svg">
<g clip-path="url(#clip0_184_2008)">
<path d="M18.8582 5.26559H21.3482L23.3026 8.60932L23.5968 9.11237H29.1638H29.7517L29.4579 8.60932L27.503 5.26559L26.3804 3.34415L24.4259 0H21.9359H18.2711H15.781L12.7033 5.26559L7.3722 14.3871L0 27H6.15485L13.527 14.3871L18.8582 5.26559Z" fill="#E1861B"/>
<path d="M39.0128 0H30.5377L32.5237 3.36328L33.643 5.25864H39.0043C41.5565 5.25864 43.6252 7.30172 43.6252 9.82308C43.6252 11.0838 43.1076 12.225 42.272 13.0504C41.4365 13.8758 40.2806 14.3871 39.0048 14.3871H19.9259L12.5537 27H18.7086L23.0071 19.6457H39.0128C41.7589 19.6457 44.2445 18.5458 46.0447 16.769C47.8434 14.9905 48.9569 12.5352 48.9569 9.82308C48.9573 4.39849 44.5045 0 39.0128 0Z" fill="#1E1A17"/>
<path d="M62.9883 10.0919L60.277 15.0485H63.8161L62.9883 10.0919ZM62.8849 6.94418H65.8859L68.1417 19.6985L69.6009 19.9029V21.1395H62.8849V19.8825L64.2612 19.7599L64.5717 19.4226L64.0645 16.4486H59.4699L57.7727 19.4839L58.0107 19.8007L59.2733 19.9029V21.1395H54.2334V19.9234L55.4857 19.7394L62.8849 6.94418ZM71.236 7.09749H78.0557V8.26255L76.7 8.35452L76.4102 8.55892L75.0547 15.5493C74.9648 15.9444 74.9063 16.2579 74.8788 16.4895C74.851 16.7143 74.8372 16.9256 74.8372 17.1231C74.8372 17.8317 75.089 18.3938 75.5928 18.8094C76.0964 19.2182 76.7828 19.4226 77.6522 19.4226C78.0729 19.4226 78.4834 19.3579 78.8835 19.2284C79.2837 19.0922 79.6529 18.898 79.9909 18.6459C80.2944 18.4211 80.5394 18.1179 80.7255 17.7363C80.9118 17.3548 81.0913 16.7518 81.2638 15.9274L82.7435 8.83485L82.5573 8.45672L81.0877 8.26255V7.09749H86.3655V8.29319L84.9685 8.43627L84.6476 8.75309L83.2713 15.6515C83.0436 16.8165 82.7919 17.692 82.5159 18.278C82.24 18.8571 81.8778 19.3579 81.4293 19.7803C80.8359 20.3322 80.1081 20.7512 79.2457 21.0374C78.3834 21.3166 77.4002 21.4564 76.2964 21.4564C74.7167 21.4564 73.4643 21.109 72.5399 20.4139C71.6154 19.7122 71.1532 18.7753 71.1532 17.6035C71.1532 17.1674 71.2464 16.4963 71.4327 15.5902L71.4431 15.5391L72.8194 8.64068L72.4881 8.3954L71.236 8.31364V7.09749ZM87.4831 7.09749H100.201L99.3736 11.3489H97.6764V8.77354L97.2934 8.51805H95.3273L93.1852 19.4839L93.4129 19.7394L94.9651 19.9029V21.1395H87.6901V19.8825L89.3252 19.7803L89.6253 19.4226L91.6949 8.51805H89.7495L89.3252 8.77354L88.4559 11.3489H86.6345L87.4831 7.09749ZM110.777 12.4527C110.777 11.1377 110.539 10.126 110.063 9.41738C109.594 8.7088 108.925 8.35452 108.056 8.35452C107.538 8.35452 107.045 8.50781 106.576 8.81442C106.114 9.12101 105.676 9.58091 105.262 10.1941C104.779 10.9095 104.403 11.7645 104.134 12.7593C103.872 13.754 103.741 14.8032 103.741 15.907C103.741 17.1334 103.989 18.1042 104.486 18.8196C104.982 19.5282 105.652 19.8825 106.493 19.8825C107.059 19.8825 107.604 19.7019 108.128 19.3408C108.653 18.9729 109.098 18.4619 109.463 17.8079C109.884 17.0448 110.208 16.1999 110.436 15.2734C110.664 14.3468 110.777 13.4065 110.777 12.4527ZM108.335 6.78067C110.301 6.78067 111.85 7.31209 112.982 8.37497C114.12 9.431 114.689 10.8754 114.689 12.7082C114.689 14.0027 114.455 15.2018 113.986 16.3056C113.517 17.4093 112.826 18.387 111.916 19.2387C111.123 19.9677 110.222 20.5195 109.215 20.8943C108.215 21.2689 107.125 21.4564 105.945 21.4564C104.082 21.4564 102.595 20.9079 101.485 19.811C100.374 18.714 99.8184 17.2458 99.8184 15.4062C99.8184 14.5273 99.9392 13.6757 100.181 12.8513C100.422 12.0269 100.781 11.2535 101.257 10.5313C102.023 9.33904 103.023 8.41584 104.258 7.76177C105.5 7.10771 106.859 6.78067 108.335 6.78067ZM122.544 8.51805L121.354 14.6091C121.519 14.6091 121.702 14.6159 121.902 14.6295C121.95 14.6295 121.978 14.6295 121.985 14.6295C123.054 14.6295 123.886 14.282 124.479 13.5871C125.079 12.8853 125.379 11.9144 125.379 10.6744C125.379 9.95223 125.176 9.41058 124.769 9.04947C124.362 8.68155 123.755 8.4976 122.947 8.4976C122.906 8.4976 122.84 8.50101 122.751 8.50781C122.661 8.51464 122.592 8.51805 122.544 8.51805ZM117.39 7.09749H124.086C125.879 7.09749 127.194 7.39386 128.028 7.98661C128.863 8.57935 129.281 9.50937 129.281 10.7766C129.281 12.3573 128.673 13.6348 127.459 14.6091C126.245 15.5834 124.634 16.0705 122.627 16.0705C122.371 16.0705 122.116 16.0637 121.861 16.0501C121.606 16.0364 121.343 16.016 121.074 15.9887L120.422 19.443L120.681 19.8212L122.161 19.9029V21.1395H115.145V19.9029L116.521 19.7803L116.862 19.5044L118.984 8.77354L118.746 8.35452L117.39 8.2421V7.09749ZM135.552 10.0919L132.84 15.0485H136.38L135.552 10.0919ZM135.448 6.94418H138.449L140.705 19.6985L142.164 19.9029V21.1395H135.448V19.8825L136.825 19.7599L137.135 19.4226L136.628 16.4486H132.033L130.336 19.4839L130.574 19.8007L131.837 19.9029V21.1395H126.797V19.9234L128.049 19.7394L135.448 6.94418ZM149.698 8.47717L148.705 13.6177C148.774 13.6314 148.846 13.6416 148.922 13.6484C148.998 13.6484 149.108 13.6484 149.253 13.6484C150.274 13.6484 151.088 13.352 151.695 12.7593C152.302 12.1665 152.606 11.3796 152.606 10.3985C152.606 9.73761 152.389 9.25387 151.954 8.94726C151.52 8.63388 150.829 8.47717 149.884 8.47717H149.698ZM144.524 7.09749H151.706C153.355 7.09749 154.569 7.34616 155.348 7.84353C156.128 8.34089 156.518 9.11759 156.518 10.1736C156.518 11.2502 156.08 12.1427 155.203 12.8513C154.334 13.5598 153.134 13.9857 151.602 14.1287C152.14 14.2241 152.599 14.391 152.979 14.6295C153.365 14.8612 153.686 15.1677 153.941 15.5493C154.231 16.0058 154.531 16.7859 154.841 17.8896C154.924 18.1962 154.99 18.4279 155.038 18.5846C155.197 19.1296 155.431 19.4975 155.742 19.6883C156.059 19.8723 156.621 19.9643 157.429 19.9643V21.1395C156.794 21.2145 156.242 21.2655 155.773 21.2928C155.304 21.3269 154.883 21.344 154.51 21.344C153.903 21.344 153.382 21.2655 152.948 21.109C152.513 20.9453 152.144 20.6899 151.84 20.3424C151.523 19.9881 151.264 19.2216 151.064 18.0429C151.03 17.8658 151.006 17.7329 150.992 17.6444C150.792 16.5679 150.509 15.8593 150.143 15.5186C149.784 15.178 149.212 15.0076 148.425 15.0076L147.535 19.5044L147.68 19.7803L149.191 19.9029V21.1395H142.258V19.9029L143.592 19.7803L143.955 19.5044L146.097 8.75309L145.859 8.41584L144.524 8.29319V7.09749ZM159.571 7.09749H166.442V8.26255L164.993 8.3954L164.766 8.66113L163.72 13.8937H164.486L169.557 8.75309L169.443 8.43627L168.17 8.33409V7.09749H173.872V8.29319L172.134 8.51805L167.56 13.0557L170.126 17.9816C170.575 18.8401 170.978 19.3851 171.337 19.6168C171.695 19.8484 172.196 19.9643 172.837 19.9643C172.879 19.9643 172.944 19.9609 173.034 19.954C173.124 19.9472 173.193 19.9438 173.241 19.9438L173.231 21.0987C173.148 21.1054 173.027 21.1157 172.868 21.1293C171.413 21.2588 170.457 21.3235 170.002 21.3235C169.146 21.3235 168.463 21.1326 167.953 20.7512C167.442 20.3628 166.887 19.5418 166.287 18.2882L164.786 15.1303H163.493L162.665 19.4635L162.872 19.8621L164.186 19.9029V21.1395H157.325V19.9029L158.743 19.8007L159.043 19.4839L161.164 8.66113L160.926 8.35452L159.571 8.29319V7.09749Z" fill="#1E1A17"/>
</g>
<defs>
<clipPath id="clip0_184_2008">
<rect width="174" height="27" fill="white"/>
</clipPath>
</defs>
</svg>
